<svg width="256" height="256" viewBox="0 0 256 256" fill="none" xmlns="http://www.w3.org/2000/svg">
<g clip-path="url(#clip0_1_2)">
<circle cx="128" cy="128" r="128" fill="#062800"/>
<rect x="43.1472" y="128" width="120" height="120" transform="rotate(-45 43.1472 128)" fill="#001355" stroke="#FFE600" stroke-width="30"/>
<path d="M119.341 201H63.375V55.5455H118.773C133.735 55.5455 146.661 58.4574 157.551 64.2812C168.489 70.0578 176.917 78.3911 182.835 89.2812C188.801 100.124 191.784 113.121 191.784 128.273C191.784 143.424 188.825 156.445 182.906 167.335C176.988 178.178 168.607 186.511 157.764 192.335C146.921 198.112 134.114 201 119.341 201ZM102.864 167.477H117.92C125.117 167.477 131.249 166.317 136.315 163.997C141.429 161.677 145.312 157.676 147.963 151.994C150.662 146.312 152.011 138.405 152.011 128.273C152.011 118.14 150.638 110.233 147.892 104.551C145.193 98.8693 141.216 94.8684 135.96 92.5483C130.752 90.2282 124.36 89.0682 116.784 89.0682H102.864V167.477Z" fill="white"/>
</g>
<defs>
<clipPath id="clip0_1_2">
<rect width="256" height="256" fill="white"/>
</clipPath>
</defs>
</svg>
